<mxfile host="Electron" modified="2023-05-23T10:45:45.477Z" agent="Mozilla/5.0 (Macintosh; Intel Mac OS X 10_15_7) AppleWebKit/537.36 (KHTML, like Gecko) draw.io/21.2.8 Chrome/112.0.5615.165 Electron/24.2.0 Safari/537.36" etag="okqFBQ9HGQ93XIeLM6hI" version="21.2.8" type="device">
  <diagram name="Pagina-1" id="kELV2Ai39GTpzXcFeus6">
    <mxGraphModel dx="1060" dy="808" grid="1" gridSize="10" guides="1" tooltips="1" connect="1" arrows="1" fold="1" page="1" pageScale="1" pageWidth="1169" pageHeight="827" math="0" shadow="0">
      <root>
        <mxCell id="0" />
        <mxCell id="1" parent="0" />
        <mxCell id="B7XteCIfGbR5q2yV8HFX-1" value="START" style="ellipse;whiteSpace=wrap;html=1;fillColor=#dae8fc;strokeColor=#6c8ebf;" vertex="1" parent="1">
          <mxGeometry x="415" y="90" width="90" height="50" as="geometry" />
        </mxCell>
        <mxCell id="B7XteCIfGbR5q2yV8HFX-3" value="" style="endArrow=classic;html=1;rounded=0;exitX=1;exitY=0.5;exitDx=0;exitDy=0;entryX=0;entryY=0.5;entryDx=0;entryDy=0;" edge="1" parent="1" source="B7XteCIfGbR5q2yV8HFX-8" target="B7XteCIfGbR5q2yV8HFX-13">
          <mxGeometry width="50" height="50" relative="1" as="geometry">
            <mxPoint x="500" y="230" as="sourcePoint" />
            <mxPoint x="570" y="230" as="targetPoint" />
          </mxGeometry>
        </mxCell>
        <mxCell id="B7XteCIfGbR5q2yV8HFX-4" value="False" style="text;html=1;align=center;verticalAlign=middle;resizable=0;points=[];autosize=1;strokeColor=none;fillColor=none;" vertex="1" parent="1">
          <mxGeometry x="510" y="205" width="50" height="30" as="geometry" />
        </mxCell>
        <mxCell id="B7XteCIfGbR5q2yV8HFX-5" value="" style="endArrow=classic;html=1;rounded=0;exitX=0.5;exitY=1;exitDx=0;exitDy=0;entryX=0.5;entryY=0;entryDx=0;entryDy=0;" edge="1" parent="1" source="B7XteCIfGbR5q2yV8HFX-8" target="B7XteCIfGbR5q2yV8HFX-20">
          <mxGeometry width="50" height="50" relative="1" as="geometry">
            <mxPoint x="460" y="260" as="sourcePoint" />
            <mxPoint x="460" y="320" as="targetPoint" />
          </mxGeometry>
        </mxCell>
        <mxCell id="B7XteCIfGbR5q2yV8HFX-6" value="True" style="text;html=1;align=center;verticalAlign=middle;resizable=0;points=[];autosize=1;strokeColor=none;fillColor=none;" vertex="1" parent="1">
          <mxGeometry x="460" y="280" width="50" height="30" as="geometry" />
        </mxCell>
        <mxCell id="B7XteCIfGbR5q2yV8HFX-8" value="&lt;font style=&quot;font-size: 10px;&quot;&gt;Utente &lt;br&gt;loggato?&lt;/font&gt;" style="rhombus;whiteSpace=wrap;html=1;" vertex="1" parent="1">
          <mxGeometry x="420" y="190" width="80" height="80" as="geometry" />
        </mxCell>
        <mxCell id="B7XteCIfGbR5q2yV8HFX-9" value="" style="endArrow=classic;html=1;rounded=0;exitX=0.5;exitY=1;exitDx=0;exitDy=0;entryX=0.5;entryY=0;entryDx=0;entryDy=0;" edge="1" parent="1" source="B7XteCIfGbR5q2yV8HFX-1" target="B7XteCIfGbR5q2yV8HFX-8">
          <mxGeometry width="50" height="50" relative="1" as="geometry">
            <mxPoint x="460" y="340" as="sourcePoint" />
            <mxPoint x="510" y="290" as="targetPoint" />
          </mxGeometry>
        </mxCell>
        <mxCell id="B7XteCIfGbR5q2yV8HFX-13" value="&lt;font style=&quot;font-size: 10px;&quot;&gt;Esistono&lt;br&gt;ordini degli utenti?&lt;/font&gt;" style="rhombus;whiteSpace=wrap;html=1;" vertex="1" parent="1">
          <mxGeometry x="580" y="190" width="80" height="80" as="geometry" />
        </mxCell>
        <mxCell id="B7XteCIfGbR5q2yV8HFX-14" value="" style="endArrow=classic;html=1;rounded=0;exitX=0.5;exitY=1;exitDx=0;exitDy=0;entryX=0.5;entryY=0;entryDx=0;entryDy=0;" edge="1" parent="1" source="B7XteCIfGbR5q2yV8HFX-13" target="B7XteCIfGbR5q2yV8HFX-19">
          <mxGeometry width="50" height="50" relative="1" as="geometry">
            <mxPoint x="460" y="390" as="sourcePoint" />
            <mxPoint x="620" y="340" as="targetPoint" />
          </mxGeometry>
        </mxCell>
        <mxCell id="B7XteCIfGbR5q2yV8HFX-15" value="True" style="text;html=1;align=center;verticalAlign=middle;resizable=0;points=[];autosize=1;strokeColor=none;fillColor=none;" vertex="1" parent="1">
          <mxGeometry x="570" y="270" width="50" height="30" as="geometry" />
        </mxCell>
        <mxCell id="B7XteCIfGbR5q2yV8HFX-16" value="" style="endArrow=classic;html=1;rounded=0;exitX=1;exitY=0.5;exitDx=0;exitDy=0;entryX=0.5;entryY=0;entryDx=0;entryDy=0;" edge="1" parent="1" source="B7XteCIfGbR5q2yV8HFX-13" target="B7XteCIfGbR5q2yV8HFX-18">
          <mxGeometry width="50" height="50" relative="1" as="geometry">
            <mxPoint x="460" y="390" as="sourcePoint" />
            <mxPoint x="740" y="230" as="targetPoint" />
            <Array as="points">
              <mxPoint x="735" y="230" />
            </Array>
          </mxGeometry>
        </mxCell>
        <mxCell id="B7XteCIfGbR5q2yV8HFX-17" value="False" style="text;html=1;align=center;verticalAlign=middle;resizable=0;points=[];autosize=1;strokeColor=none;fillColor=none;" vertex="1" parent="1">
          <mxGeometry x="710" y="205" width="50" height="30" as="geometry" />
        </mxCell>
        <mxCell id="B7XteCIfGbR5q2yV8HFX-18" value="Mostro tutti&amp;nbsp;&lt;br&gt;i prodotti" style="rounded=1;whiteSpace=wrap;html=1;" vertex="1" parent="1">
          <mxGeometry x="690" y="320" width="90" height="40" as="geometry" />
        </mxCell>
        <mxCell id="B7XteCIfGbR5q2yV8HFX-19" value="Mostro prodotti&amp;nbsp;&lt;br&gt;più popolari" style="rounded=1;whiteSpace=wrap;html=1;" vertex="1" parent="1">
          <mxGeometry x="575" y="320" width="90" height="40" as="geometry" />
        </mxCell>
        <mxCell id="B7XteCIfGbR5q2yV8HFX-20" value="&lt;font style=&quot;font-size: 10px;&quot;&gt;Utente &lt;br&gt;è admin?&lt;br&gt;&lt;/font&gt;" style="rhombus;whiteSpace=wrap;html=1;" vertex="1" parent="1">
          <mxGeometry x="420" y="320" width="80" height="80" as="geometry" />
        </mxCell>
        <mxCell id="B7XteCIfGbR5q2yV8HFX-21" value="" style="endArrow=classic;html=1;rounded=0;exitX=0.5;exitY=1;exitDx=0;exitDy=0;" edge="1" parent="1" source="B7XteCIfGbR5q2yV8HFX-20">
          <mxGeometry width="50" height="50" relative="1" as="geometry">
            <mxPoint x="460" y="380" as="sourcePoint" />
            <mxPoint x="460" y="450" as="targetPoint" />
          </mxGeometry>
        </mxCell>
        <mxCell id="B7XteCIfGbR5q2yV8HFX-22" value="&lt;font style=&quot;font-size: 10px;&quot;&gt;Ha prodotti&lt;br&gt;caricati?&lt;br&gt;&lt;/font&gt;" style="rhombus;whiteSpace=wrap;html=1;" vertex="1" parent="1">
          <mxGeometry x="420" y="450" width="80" height="80" as="geometry" />
        </mxCell>
        <mxCell id="B7XteCIfGbR5q2yV8HFX-23" value="True" style="text;html=1;align=center;verticalAlign=middle;resizable=0;points=[];autosize=1;strokeColor=none;fillColor=none;" vertex="1" parent="1">
          <mxGeometry x="450" y="400" width="50" height="30" as="geometry" />
        </mxCell>
        <mxCell id="B7XteCIfGbR5q2yV8HFX-24" value="" style="endArrow=classic;html=1;rounded=0;exitX=0;exitY=0.5;exitDx=0;exitDy=0;entryX=1;entryY=0.5;entryDx=0;entryDy=0;" edge="1" parent="1" source="B7XteCIfGbR5q2yV8HFX-20" target="B7XteCIfGbR5q2yV8HFX-33">
          <mxGeometry width="50" height="50" relative="1" as="geometry">
            <mxPoint x="460" y="360" as="sourcePoint" />
            <mxPoint x="370" y="360" as="targetPoint" />
          </mxGeometry>
        </mxCell>
        <mxCell id="B7XteCIfGbR5q2yV8HFX-25" value="False" style="text;html=1;align=center;verticalAlign=middle;resizable=0;points=[];autosize=1;strokeColor=none;fillColor=none;" vertex="1" parent="1">
          <mxGeometry x="370" y="325" width="50" height="30" as="geometry" />
        </mxCell>
        <mxCell id="B7XteCIfGbR5q2yV8HFX-26" value="" style="endArrow=classic;html=1;rounded=0;exitX=0.5;exitY=1;exitDx=0;exitDy=0;entryX=0.5;entryY=0;entryDx=0;entryDy=0;" edge="1" parent="1" source="B7XteCIfGbR5q2yV8HFX-22" target="B7XteCIfGbR5q2yV8HFX-28">
          <mxGeometry width="50" height="50" relative="1" as="geometry">
            <mxPoint x="585" y="465" as="sourcePoint" />
            <mxPoint x="570" y="490" as="targetPoint" />
            <Array as="points" />
          </mxGeometry>
        </mxCell>
        <mxCell id="B7XteCIfGbR5q2yV8HFX-27" value="True" style="text;html=1;align=center;verticalAlign=middle;resizable=0;points=[];autosize=1;strokeColor=none;fillColor=none;" vertex="1" parent="1">
          <mxGeometry x="460" y="532" width="50" height="30" as="geometry" />
        </mxCell>
        <mxCell id="B7XteCIfGbR5q2yV8HFX-28" value="Mostro grafico&amp;nbsp;&lt;br&gt;vendite prodotti" style="rounded=1;whiteSpace=wrap;html=1;" vertex="1" parent="1">
          <mxGeometry x="415" y="582" width="90" height="40" as="geometry" />
        </mxCell>
        <mxCell id="B7XteCIfGbR5q2yV8HFX-29" value="" style="endArrow=classic;html=1;rounded=0;entryX=0.5;entryY=0;entryDx=0;entryDy=0;exitX=1;exitY=0.5;exitDx=0;exitDy=0;" edge="1" parent="1" source="B7XteCIfGbR5q2yV8HFX-22" target="B7XteCIfGbR5q2yV8HFX-30">
          <mxGeometry width="50" height="50" relative="1" as="geometry">
            <mxPoint x="390" y="532" as="sourcePoint" />
            <mxPoint x="290" y="572" as="targetPoint" />
            <Array as="points">
              <mxPoint x="585" y="490" />
            </Array>
          </mxGeometry>
        </mxCell>
        <mxCell id="B7XteCIfGbR5q2yV8HFX-30" value="Non mostro nulla" style="rounded=1;whiteSpace=wrap;html=1;" vertex="1" parent="1">
          <mxGeometry x="540" y="582" width="90" height="40" as="geometry" />
        </mxCell>
        <mxCell id="B7XteCIfGbR5q2yV8HFX-31" value="False" style="text;html=1;align=center;verticalAlign=middle;resizable=0;points=[];autosize=1;strokeColor=none;fillColor=none;" vertex="1" parent="1">
          <mxGeometry x="540" y="460" width="50" height="30" as="geometry" />
        </mxCell>
        <mxCell id="B7XteCIfGbR5q2yV8HFX-33" value="&lt;font style=&quot;font-size: 10px;&quot;&gt;Cliente ha&amp;nbsp;&lt;br&gt;fatto acquisti?&lt;/font&gt;" style="rhombus;whiteSpace=wrap;html=1;" vertex="1" parent="1">
          <mxGeometry x="290" y="320" width="80" height="80" as="geometry" />
        </mxCell>
        <mxCell id="B7XteCIfGbR5q2yV8HFX-35" value="" style="endArrow=classic;html=1;rounded=0;exitX=0;exitY=0.5;exitDx=0;exitDy=0;entryX=0.5;entryY=0;entryDx=0;entryDy=0;" edge="1" parent="1" source="B7XteCIfGbR5q2yV8HFX-33" target="B7XteCIfGbR5q2yV8HFX-36">
          <mxGeometry width="50" height="50" relative="1" as="geometry">
            <mxPoint x="480" y="420" as="sourcePoint" />
            <mxPoint x="330" y="450" as="targetPoint" />
            <Array as="points">
              <mxPoint x="245" y="360" />
            </Array>
          </mxGeometry>
        </mxCell>
        <mxCell id="B7XteCIfGbR5q2yV8HFX-36" value="&lt;font style=&quot;font-size: 10px;&quot;&gt;Ho almeno un prodotto da consigliare?&lt;/font&gt;" style="rhombus;whiteSpace=wrap;html=1;" vertex="1" parent="1">
          <mxGeometry x="205" y="410" width="80" height="80" as="geometry" />
        </mxCell>
        <mxCell id="B7XteCIfGbR5q2yV8HFX-37" value="True" style="text;html=1;align=center;verticalAlign=middle;resizable=0;points=[];autosize=1;strokeColor=none;fillColor=none;" vertex="1" parent="1">
          <mxGeometry x="230" y="330" width="50" height="30" as="geometry" />
        </mxCell>
        <mxCell id="B7XteCIfGbR5q2yV8HFX-38" value="" style="endArrow=classic;html=1;rounded=0;exitX=0.5;exitY=1;exitDx=0;exitDy=0;entryX=0.5;entryY=0;entryDx=0;entryDy=0;" edge="1" parent="1" source="B7XteCIfGbR5q2yV8HFX-36" target="B7XteCIfGbR5q2yV8HFX-46">
          <mxGeometry width="50" height="50" relative="1" as="geometry">
            <mxPoint x="395" y="372" as="sourcePoint" />
            <mxPoint x="245" y="532" as="targetPoint" />
          </mxGeometry>
        </mxCell>
        <mxCell id="B7XteCIfGbR5q2yV8HFX-40" value="True" style="text;html=1;align=center;verticalAlign=middle;resizable=0;points=[];autosize=1;strokeColor=none;fillColor=none;" vertex="1" parent="1">
          <mxGeometry x="155" y="420" width="50" height="30" as="geometry" />
        </mxCell>
        <mxCell id="B7XteCIfGbR5q2yV8HFX-41" value="" style="endArrow=classic;html=1;rounded=0;exitX=0;exitY=0.5;exitDx=0;exitDy=0;entryX=1;entryY=0.5;entryDx=0;entryDy=0;" edge="1" parent="1" source="B7XteCIfGbR5q2yV8HFX-36" target="B7XteCIfGbR5q2yV8HFX-44">
          <mxGeometry width="50" height="50" relative="1" as="geometry">
            <mxPoint x="395" y="372" as="sourcePoint" />
            <mxPoint x="135" y="450" as="targetPoint" />
          </mxGeometry>
        </mxCell>
        <mxCell id="B7XteCIfGbR5q2yV8HFX-42" value="False" style="text;html=1;align=center;verticalAlign=middle;resizable=0;points=[];autosize=1;strokeColor=none;fillColor=none;" vertex="1" parent="1">
          <mxGeometry x="195" y="490" width="50" height="30" as="geometry" />
        </mxCell>
        <mxCell id="B7XteCIfGbR5q2yV8HFX-44" value="Mostro prodotti&lt;br&gt;consigliati" style="rounded=1;whiteSpace=wrap;html=1;" vertex="1" parent="1">
          <mxGeometry x="65" y="430" width="90" height="40" as="geometry" />
        </mxCell>
        <mxCell id="B7XteCIfGbR5q2yV8HFX-46" value="&lt;span style=&quot;font-size: 10px;&quot;&gt;Ho acquisti&amp;nbsp;&lt;br&gt;di altri utenti?&lt;br&gt;&lt;/span&gt;" style="rhombus;whiteSpace=wrap;html=1;" vertex="1" parent="1">
          <mxGeometry x="205" y="532" width="80" height="80" as="geometry" />
        </mxCell>
        <mxCell id="B7XteCIfGbR5q2yV8HFX-47" value="" style="endArrow=classic;html=1;rounded=0;exitX=0.5;exitY=1;exitDx=0;exitDy=0;entryX=0.5;entryY=0;entryDx=0;entryDy=0;" edge="1" parent="1" source="B7XteCIfGbR5q2yV8HFX-46" target="B7XteCIfGbR5q2yV8HFX-53">
          <mxGeometry width="50" height="50" relative="1" as="geometry">
            <mxPoint x="395" y="592" as="sourcePoint" />
            <mxPoint x="240" y="652" as="targetPoint" />
          </mxGeometry>
        </mxCell>
        <mxCell id="B7XteCIfGbR5q2yV8HFX-49" value="True" style="text;html=1;align=center;verticalAlign=middle;resizable=0;points=[];autosize=1;strokeColor=none;fillColor=none;" vertex="1" parent="1">
          <mxGeometry x="235" y="612" width="50" height="30" as="geometry" />
        </mxCell>
        <mxCell id="B7XteCIfGbR5q2yV8HFX-50" value="" style="endArrow=classic;html=1;rounded=0;exitX=0;exitY=0.5;exitDx=0;exitDy=0;entryX=0.5;entryY=0;entryDx=0;entryDy=0;" edge="1" parent="1" source="B7XteCIfGbR5q2yV8HFX-46" target="B7XteCIfGbR5q2yV8HFX-62">
          <mxGeometry width="50" height="50" relative="1" as="geometry">
            <mxPoint x="395" y="562" as="sourcePoint" />
            <mxPoint x="115" y="572" as="targetPoint" />
            <Array as="points">
              <mxPoint x="110" y="572" />
            </Array>
          </mxGeometry>
        </mxCell>
        <mxCell id="B7XteCIfGbR5q2yV8HFX-51" value="False" style="text;html=1;align=center;verticalAlign=middle;resizable=0;points=[];autosize=1;strokeColor=none;fillColor=none;" vertex="1" parent="1">
          <mxGeometry x="125" y="542" width="50" height="30" as="geometry" />
        </mxCell>
        <mxCell id="B7XteCIfGbR5q2yV8HFX-53" value="&lt;span style=&quot;font-size: 10px;&quot;&gt;Ho prodotti popolari non acquistati dall&#39;utente?&lt;br&gt;&lt;/span&gt;" style="rhombus;whiteSpace=wrap;html=1;" vertex="1" parent="1">
          <mxGeometry x="205" y="652" width="80" height="80" as="geometry" />
        </mxCell>
        <mxCell id="B7XteCIfGbR5q2yV8HFX-56" value="" style="endArrow=classic;html=1;rounded=0;exitX=1;exitY=0.5;exitDx=0;exitDy=0;entryX=0.5;entryY=0;entryDx=0;entryDy=0;" edge="1" parent="1" source="B7XteCIfGbR5q2yV8HFX-53" target="B7XteCIfGbR5q2yV8HFX-58">
          <mxGeometry width="50" height="50" relative="1" as="geometry">
            <mxPoint x="395" y="622" as="sourcePoint" />
            <mxPoint x="355" y="692" as="targetPoint" />
            <Array as="points">
              <mxPoint x="370" y="692" />
            </Array>
          </mxGeometry>
        </mxCell>
        <mxCell id="B7XteCIfGbR5q2yV8HFX-57" value="False" style="text;html=1;align=center;verticalAlign=middle;resizable=0;points=[];autosize=1;strokeColor=none;fillColor=none;" vertex="1" parent="1">
          <mxGeometry x="320" y="662" width="50" height="30" as="geometry" />
        </mxCell>
        <mxCell id="B7XteCIfGbR5q2yV8HFX-58" value="Mostro tutti i prodotti" style="rounded=1;whiteSpace=wrap;html=1;" vertex="1" parent="1">
          <mxGeometry x="325" y="772" width="90" height="40" as="geometry" />
        </mxCell>
        <mxCell id="B7XteCIfGbR5q2yV8HFX-59" value="Mostro prodotti&amp;nbsp;&lt;br&gt;più popolari" style="rounded=1;whiteSpace=wrap;html=1;" vertex="1" parent="1">
          <mxGeometry x="200" y="772" width="90" height="40" as="geometry" />
        </mxCell>
        <mxCell id="B7XteCIfGbR5q2yV8HFX-60" value="" style="endArrow=classic;html=1;rounded=0;exitX=0.5;exitY=1;exitDx=0;exitDy=0;entryX=0.5;entryY=0;entryDx=0;entryDy=0;" edge="1" parent="1" source="B7XteCIfGbR5q2yV8HFX-53" target="B7XteCIfGbR5q2yV8HFX-59">
          <mxGeometry width="50" height="50" relative="1" as="geometry">
            <mxPoint x="395" y="742" as="sourcePoint" />
            <mxPoint x="445" y="692" as="targetPoint" />
          </mxGeometry>
        </mxCell>
        <mxCell id="B7XteCIfGbR5q2yV8HFX-61" value="True" style="text;html=1;align=center;verticalAlign=middle;resizable=0;points=[];autosize=1;strokeColor=none;fillColor=none;" vertex="1" parent="1">
          <mxGeometry x="240" y="732" width="50" height="30" as="geometry" />
        </mxCell>
        <mxCell id="B7XteCIfGbR5q2yV8HFX-62" value="Mostro tutti i prodotti" style="rounded=1;whiteSpace=wrap;html=1;" vertex="1" parent="1">
          <mxGeometry x="65" y="622" width="90" height="40" as="geometry" />
        </mxCell>
        <mxCell id="B7XteCIfGbR5q2yV8HFX-63" value="" style="endArrow=classic;html=1;rounded=0;exitX=0.5;exitY=1;exitDx=0;exitDy=0;entryX=1;entryY=0.5;entryDx=0;entryDy=0;" edge="1" parent="1" source="B7XteCIfGbR5q2yV8HFX-33" target="B7XteCIfGbR5q2yV8HFX-46">
          <mxGeometry width="50" height="50" relative="1" as="geometry">
            <mxPoint x="375" y="400" as="sourcePoint" />
            <mxPoint x="255" y="610" as="targetPoint" />
            <Array as="points">
              <mxPoint x="330" y="572" />
            </Array>
          </mxGeometry>
        </mxCell>
        <mxCell id="B7XteCIfGbR5q2yV8HFX-64" value="False" style="text;html=1;align=center;verticalAlign=middle;resizable=0;points=[];autosize=1;strokeColor=none;fillColor=none;" vertex="1" parent="1">
          <mxGeometry x="330" y="450" width="50" height="30" as="geometry" />
        </mxCell>
      </root>
    </mxGraphModel>
  </diagram>
</mxfile>
